<?xml version="1.0" encoding="utf-8"?>

<!-- Uploaded to: SVG Repo, www.svgrepo.com, Generator: SVG Repo Mixer Tools -->
<svg version="1.1" id="Uploaded to svgrepo.com" xmlns="http://www.w3.org/2000/svg" xmlns:xlink="http://www.w3.org/1999/xlink" 
	 width="22px" height="22px" viewBox="0 0 32 32" xml:space="preserve">
<style type="text/css">
	.linesandangles_een{fill:#1DA1F2;}
</style>
<g>
	<g>
		<path class="linesandangles_een" d="M10,20c-1.657,0-3,1.343-3,3s1.343,3,3,3s3-1.343,3-3S11.657,20,10,20z M10,24
			c-0.551,0-1-0.449-1-1s0.449-1,1-1s1,0.449,1,1S10.551,24,10,24z"/>
		<circle class="linesandangles_een" cx="10" cy="16" r="3"/>
		<path class="linesandangles_een" d="M10,6C8.343,6,7,7.343,7,9s1.343,3,3,3s3-1.343,3-3S11.657,6,10,6z M10,10
			c-0.551,0-1-0.449-1-1s0.449-1,1-1s1,0.449,1,1S10.551,10,10,10z"/>
		<rect x="15" y="8" class="linesandangles_een" width="10" height="2"/>
		<rect x="15" y="15" class="linesandangles_een" width="10" height="2"/>
		<rect x="15" y="22" class="linesandangles_een" width="10" height="2"/>
	</g>
	<g>
		<path class="linesandangles_een" d="M10,20c-1.657,0-3,1.343-3,3s1.343,3,3,3s3-1.343,3-3S11.657,20,10,20z M10,24
			c-0.551,0-1-0.449-1-1s0.449-1,1-1s1,0.449,1,1S10.551,24,10,24z"/>
		<circle class="linesandangles_een" cx="10" cy="16" r="3"/>
		<path class="linesandangles_een" d="M10,6C8.343,6,7,7.343,7,9s1.343,3,3,3s3-1.343,3-3S11.657,6,10,6z M10,10
			c-0.551,0-1-0.449-1-1s0.449-1,1-1s1,0.449,1,1S10.551,10,10,10z"/>
		<rect x="15" y="8" class="linesandangles_een" width="10" height="2"/>
		<rect x="15" y="15" class="linesandangles_een" width="10" height="2"/>
		<rect x="15" y="22" class="linesandangles_een" width="10" height="2"/>
	</g>
</g>
</svg>